# Blender v2.90.1 OBJ File: 'tunnel_final.blend'
# www.blender.org
mtllib tunnel_2wall.mtl
o Plane
v -14.000000 20.000000 0.001000
v -14.000000 -20.000000 0.001000
v 14.000000 20.000000 0.001000
v 14.000000 -20.000000 0.001000
v 10.000000 20.000000 0.001000
v 6.000000 20.000000 0.001000
v 2.000000 20.000000 0.001000
v -2.000000 20.000000 0.001000
v -6.000000 20.000000 0.001000
v -10.000000 20.000000 0.001000
v -10.000000 -20.000000 0.001000
v -6.000000 -20.000000 0.001000
v -2.000000 -20.000000 0.001000
v 2.000000 -20.000000 0.001000
v 6.000000 -20.000000 0.001000
v 10.000000 -20.000000 0.001000
v -14.000000 16.000000 0.001000
v -14.000000 12.000000 0.001000
v -14.000000 8.000001 0.001000
v -14.000000 4.000000 0.001000
v -14.000000 -0.000000 0.001000
v -14.000000 -4.000000 0.001000
v -14.000000 -8.000000 0.001000
v -14.000000 -12.000000 0.001000
v -14.000000 -16.000000 0.001000
v 14.000000 -16.000000 0.001000
v 14.000000 -12.000000 0.001000
v 14.000000 -8.000001 0.001000
v 14.000000 -4.000000 0.001000
v 14.000000 -0.000000 0.001000
v 14.000000 4.000000 0.001000
v 14.000000 8.000000 0.001000
v 14.000000 12.000000 0.001000
v 14.000000 16.000000 0.001000
v -10.000000 -16.000000 0.001000
v -10.000000 -12.000000 0.001000
v -10.000000 -8.000001 0.001000
v -10.000000 -4.000000 0.001000
v -10.000000 -0.000000 0.001000
v -10.000000 4.000000 0.001000
v -10.000000 8.000000 0.001000
v -10.000000 12.000000 0.001000
v -10.000000 16.000000 0.001000
v -6.000000 -16.000000 0.001000
v -6.000000 -12.000000 0.001000
v -6.000000 -8.000001 0.001000
v -6.000000 -4.000000 0.001000
v -6.000000 -0.000000 0.001000
v -6.000000 4.000000 0.001000
v -6.000000 8.000000 0.001000
v -6.000000 12.000000 0.001000
v -6.000000 16.000000 0.001000
v -2.000000 -16.000000 0.001000
v -2.000000 -12.000000 0.001000
v -2.000000 -8.000001 0.001000
v -2.000000 -4.000000 0.001000
v -2.000000 -0.000000 0.001000
v -2.000000 4.000000 0.001000
v -2.000000 8.000000 0.001000
v -2.000000 12.000000 0.001000
v -2.000000 16.000000 0.001000
v 2.000000 -16.000000 0.001000
v 2.000000 -12.000000 0.001000
v 2.000000 -8.000001 0.001000
v 2.000000 -4.000000 0.001000
v 2.000000 -0.000000 0.001000
v 2.000000 4.000000 0.001000
v 2.000000 8.000000 0.001000
v 2.000000 12.000000 0.001000
v 2.000000 16.000000 0.001000
v 6.000000 -16.000000 0.001000
v 6.000000 -12.000000 0.001000
v 6.000000 -8.000001 0.001000
v 6.000000 -4.000000 0.001000
v 6.000000 -0.000000 0.001000
v 6.000000 4.000000 0.001000
v 6.000000 8.000000 0.001000
v 6.000000 12.000000 0.001000
v 6.000000 16.000000 0.001000
v 10.000000 -16.000000 0.001000
v 10.000000 -12.000000 0.001000
v 10.000000 -8.000001 0.001000
v 10.000000 -4.000000 0.001000
v 10.000000 -0.000000 0.001000
v 10.000000 4.000000 0.001000
v 10.000000 8.000000 0.001000
v 10.000000 12.000000 0.001000
v 10.000000 16.000000 0.001000
vt 1.000000 0.503906
vt 1.000000 1.000000
vt 0.007810 1.000000
vt 0.007810 0.503906
vt 0.992651 1.000000
vt 0.000463 1.000000
vt 0.000463 0.503906
vt 0.992651 0.503906
vt 0.000000 0.496094
vt 0.000000 0.000000
vt 0.992188 0.000000
vt 0.992188 0.496094
vt 0.000000 0.496094
vt 0.000000 0.000000
vt 0.992188 0.000000
vt 0.992188 0.496094
vt 0.000001 0.496094
vt 0.000001 0.000000
vt 0.992187 0.000000
vt 0.992188 0.496094
vt 0.007810 0.496095
vt 0.007810 0.000001
vt 1.000000 0.000001
vt 1.000000 0.496095
vt 0.007815 0.496094
vt 0.007815 0.000000
vt 1.000000 0.000000
vt 1.000000 0.496094
vt 0.000000 0.496094
vt 0.000000 0.000000
vt 0.992185 0.000000
vt 0.992185 0.496094
vt 0.001593 0.999560
vt 0.001593 0.503466
vt 0.993779 0.503466
vt 0.993779 0.999560
vt 0.003906 0.000000
vt 0.996094 0.000000
vt 0.996094 0.496093
vt 0.003906 0.496093
vt 0.996094 1.000000
vt 0.003906 1.000000
vt 0.003906 0.503907
vt 0.996094 0.503907
vt 0.003909 0.996088
vt 0.003909 0.499994
vt 0.996094 0.499994
vt 0.996094 0.996088
vt 0.998409 0.998402
vt 0.006221 0.998403
vt 0.006221 0.502310
vt 0.998409 0.502310
vt 0.003906 0.996088
vt 0.003906 0.499994
vt 0.996091 0.499994
vt 0.996091 0.996088
vt 0.997685 0.998407
vt 0.005498 0.998407
vt 0.005498 0.502314
vt 0.997685 0.502314
vt 0.000000 0.949159
vt 0.056345 0.949159
vt 0.056345 0.977332
vt 0.000000 0.977332
vt 0.003905 0.496094
vt 0.003905 0.000001
vt 0.996094 0.000001
vt 0.996094 0.496094
vt 0.018331 0.970858
vt 0.070211 0.970858
vt 0.070211 0.996798
vt 0.018331 0.996798
vt 0.011881 0.967941
vt 0.063761 0.967941
vt 0.063761 0.993881
vt 0.011881 0.993881
vt 0.022930 0.959192
vt 0.074810 0.959192
vt 0.074810 0.985132
vt 0.022930 0.985132
vt 0.007813 0.502334
vt 1.000000 0.502334
vt 1.000000 0.998429
vt 0.007813 0.998429
vt 0.996094 0.503906
vt 0.996094 1.000000
vt 0.003904 1.000000
vt 0.003904 0.503906
vt 0.026913 0.965025
vt 0.078793 0.965025
vt 0.078793 0.990965
vt 0.026913 0.990965
vt 0.130673 0.965025
vt 0.130673 0.990965
vt 0.182553 0.965025
vt 0.182553 0.990965
vt 0.003908 0.496094
vt 0.003908 0.000000
vt 0.996094 0.000000
vt 0.996094 0.496094
vt 0.047495 0.956584
vt 0.099375 0.956584
vt 0.099375 0.982524
vt 0.047495 0.982524
vt 0.046879 0.950751
vt 0.098759 0.950751
vt 0.098759 0.976691
vt 0.046879 0.976691
vt -0.095312 0.476377
vt 0.202344 0.476377
vt 0.202344 0.523624
vt -0.095312 0.523624
vt 0.003907 0.496094
vt 0.003907 0.000000
vt 0.996094 0.000000
vt 0.996094 0.496094
vt 0.003907 0.496094
vt 0.003907 0.000000
vt 0.996094 0.000000
vt 0.996094 0.496094
vt 0.026913 0.939085
vt 0.078793 0.939085
vt 0.130673 0.939085
vt 0.182553 0.939085
vt 0.003906 0.496094
vt 0.003906 0.000000
vt 0.996094 0.000000
vt 0.996094 0.496094
vt 0.018331 0.962725
vt 0.070211 0.962725
vt 0.070211 0.988665
vt 0.018331 0.988665
vt 0.122091 0.962725
vt 0.122091 0.988665
vt 0.173971 0.962725
vt 0.173971 0.988665
vt 0.003906 0.496094
vt 0.003906 0.000000
vt 0.996094 0.000000
vt 0.996094 0.496094
vt 0.003906 0.496094
vt 0.003906 0.000000
vt 0.996094 0.000000
vt 0.996094 0.496094
vt 0.026913 0.913145
vt 0.078793 0.913145
vt 0.130673 0.913145
vt 0.182553 0.913145
vt 0.000000 0.496094
vt 0.000000 0.000000
vt 0.992187 0.000000
vt 0.992187 0.496094
vt 0.018331 0.936785
vt 0.070211 0.936785
vt 0.122091 0.936785
vt 0.173971 0.936785
vt 0.003906 0.496094
vt 0.003906 0.000000
vt 0.996094 0.000000
vt 0.996094 0.496094
vt 0.000000 0.496094
vt 0.000000 0.000000
vt 0.992188 0.000000
vt 0.992188 0.496094
vt 0.026913 0.887205
vt 0.078793 0.887205
vt 0.130673 0.887205
vt 0.182553 0.887205
vt 0.000000 0.995370
vt 0.000000 0.499277
vt 0.992187 0.499277
vt 0.992187 0.995370
vt 0.003906 0.000000
vt 0.996094 0.000000
vt 0.996094 0.496094
vt 0.003906 0.496094
vt 0.003906 0.000000
vt 0.996093 0.000000
vt 0.996094 0.496094
vt 0.003906 0.496094
vt 0.003906 0.000000
vt 0.996094 0.000000
vt 0.996094 0.496093
vt 0.003907 0.496093
vt 0.992188 1.000000
vt 0.000000 1.000000
vt 0.000000 0.503906
vt 0.992188 0.503906
vt 0.001591 0.996014
vt 0.001591 0.499920
vt 0.993779 0.499920
vt 0.993779 0.996014
vt 0.003906 0.000000
vt 0.996094 0.000000
vt 0.996094 0.496094
vt 0.003906 0.496094
vt 0.003906 0.000000
vt 0.996094 0.000000
vt 0.996094 0.496094
vt 0.003906 0.496094
vt 0.003906 0.000000
vt 0.996094 0.000000
vt 0.996094 0.496094
vt 0.003906 0.496094
vt 0.007812 0.503905
vt 1.000000 0.503905
vt 1.000000 1.000000
vt 0.007812 1.000000
vt 0.992191 0.499994
vt 0.992191 0.996088
vt 0.000000 0.996088
vt 0.000000 0.499994
vt 0.000000 0.945251
vt 0.056345 0.945251
vt 0.056345 0.973423
vt 0.000000 0.973423
vt 0.003906 0.499998
vt 0.996094 0.499998
vt 0.996094 0.996093
vt 0.003906 0.996093
vt 1.000000 0.503906
vt 1.000000 1.000000
vt 0.007810 1.000000
vt 0.007810 0.503906
vt 0.003906 0.499994
vt 0.996094 0.499994
vt 0.996094 0.996089
vt 0.003906 0.996089
vt 1.000000 0.503906
vt 1.000000 1.000000
vt 0.007810 1.000000
vt 0.007810 0.503906
vt 0.003906 0.499996
vt 0.996094 0.499996
vt 0.996094 0.996091
vt 0.003906 0.996091
vt 0.000000 0.000000
vt 0.992188 0.000000
vt 0.992188 0.496095
vt 0.000000 0.496095
vn 0.0000 0.0000 1.0000
usemtl tiles.001
s off
f 80/1/1 16/2/1 4/3/1 26/4/1
f 25/5/1 2/6/1 11/7/1 35/8/1
f 35/9/1 11/10/1 12/11/1 44/12/1
f 44/13/1 12/14/1 13/15/1 53/16/1
f 53/17/1 13/18/1 14/19/1 62/20/1
f 62/21/1 14/22/1 15/23/1 71/24/1
f 71/25/1 15/26/1 16/27/1 80/28/1
f 6/29/1 79/30/1 88/31/1 5/32/1
f 79/33/1 78/34/1 87/35/1 88/36/1
f 78/37/1 77/38/1 86/39/1 87/40/1
f 77/41/1 76/42/1 85/43/1 86/44/1
f 76/45/1 75/46/1 84/47/1 85/48/1
f 75/49/1 74/50/1 83/51/1 84/52/1
f 74/53/1 73/54/1 82/55/1 83/56/1
f 73/57/1 72/58/1 81/59/1 82/60/1
f 72/61/1 71/62/1 80/63/1 81/64/1
f 7/65/1 70/66/1 79/67/1 6/68/1
f 70/69/1 69/70/1 78/71/1 79/72/1
f 69/73/1 68/74/1 77/75/1 78/76/1
f 68/77/1 67/78/1 76/79/1 77/80/1
f 67/81/1 66/82/1 75/83/1 76/84/1
f 66/85/1 65/86/1 74/87/1 75/88/1
f 65/89/1 64/90/1 73/91/1 74/92/1
f 64/90/1 63/93/1 72/94/1 73/91/1
f 63/93/1 62/95/1 71/96/1 72/94/1
f 8/97/1 61/98/1 70/99/1 7/100/1
f 61/101/1 60/102/1 69/103/1 70/104/1
f 60/105/1 59/106/1 68/107/1 69/108/1
f 59/109/1 58/110/1 67/111/1 68/112/1
f 58/113/1 57/114/1 66/115/1 67/116/1
f 57/117/1 56/118/1 65/119/1 66/120/1
f 56/121/1 55/122/1 64/90/1 65/89/1
f 55/122/1 54/123/1 63/93/1 64/90/1
f 54/123/1 53/124/1 62/95/1 63/93/1
f 9/125/1 52/126/1 61/127/1 8/128/1
f 52/129/1 51/130/1 60/131/1 61/132/1
f 51/130/1 50/133/1 59/134/1 60/131/1
f 50/133/1 49/135/1 58/136/1 59/134/1
f 49/137/1 48/138/1 57/139/1 58/140/1
f 48/141/1 47/142/1 56/143/1 57/144/1
f 47/145/1 46/146/1 55/122/1 56/121/1
f 46/146/1 45/147/1 54/123/1 55/122/1
f 45/147/1 44/148/1 53/124/1 54/123/1
f 10/149/1 43/150/1 52/151/1 9/152/1
f 43/153/1 42/154/1 51/130/1 52/129/1
f 42/154/1 41/155/1 50/133/1 51/130/1
f 41/155/1 40/156/1 49/135/1 50/133/1
f 40/157/1 39/158/1 48/159/1 49/160/1
f 39/161/1 38/162/1 47/163/1 48/164/1
f 38/165/1 37/166/1 46/146/1 47/145/1
f 37/166/1 36/167/1 45/147/1 46/146/1
f 36/167/1 35/168/1 44/148/1 45/147/1
f 1/169/1 17/170/1 43/171/1 10/172/1
f 17/173/1 18/174/1 42/175/1 43/176/1
f 18/177/1 19/178/1 41/179/1 42/180/1
f 19/181/1 20/182/1 40/183/1 41/184/1
f 20/185/1 21/186/1 39/187/1 40/188/1
f 21/189/1 22/190/1 38/191/1 39/192/1
f 22/193/1 23/194/1 37/195/1 38/196/1
f 23/197/1 24/198/1 36/199/1 37/200/1
f 24/201/1 25/202/1 35/203/1 36/204/1
f 5/205/1 88/206/1 34/207/1 3/208/1
f 88/209/1 87/210/1 33/211/1 34/212/1
f 87/213/1 86/214/1 32/215/1 33/216/1
f 86/217/1 85/218/1 31/219/1 32/220/1
f 85/221/1 84/222/1 30/223/1 31/224/1
f 84/225/1 83/226/1 29/227/1 30/228/1
f 83/229/1 82/230/1 28/231/1 29/232/1
f 82/233/1 81/234/1 27/235/1 28/236/1
f 81/237/1 80/238/1 26/239/1 27/240/1
o Cube_Cube.001
v 13.630787 0.171556 -0.039829
v 13.630787 0.171556 2.460171
v 13.930787 0.171556 -0.039829
v 13.930787 0.171556 2.460171
v 13.630787 -0.128444 -0.039829
v 13.630787 -0.128444 2.460171
v 13.930787 -0.128444 -0.039829
v 13.930787 -0.128444 2.460171
v 13.631264 0.170582 4.000000
v 13.931264 0.170582 4.081585
v 13.931264 -0.129418 4.081585
v 13.631264 -0.129418 4.000000
v 13.630787 0.171556 2.052794
v 13.930787 0.171556 2.052794
v 13.930787 -0.128444 2.052794
v 13.630787 -0.128444 2.052794
vt 0.857143 0.837049
vt 0.857143 0.690706
vt 0.714286 0.690706
vt 0.714286 0.837049
vt 0.333709 0.837049
vt 0.333709 0.690691
vt 0.190852 0.690691
vt 0.190852 0.837049
vt 0.571429 0.837049
vt 0.571429 0.690691
vt 0.428572 0.690691
vt 0.428572 0.837049
vt 0.142857 0.837049
vt 0.142857 0.691641
vt 0.000000 0.691641
vt 0.000000 0.837049
vt 0.850560 0.000244
vt 0.993417 0.000244
vt 0.993417 0.110886
vt 0.850560 0.110886
vt 0.331934 0.386368
vt 0.189077 0.386368
vt 0.189077 0.691211
vt 0.331934 0.691211
vt 0.996709 0.713908
vt 0.853852 0.713908
vt 0.853852 0.629484
vt 0.996709 0.629484
vt 0.427427 0.691345
vt 0.570284 0.691345
vt 0.570284 0.391270
vt 0.427427 0.391270
vt 0.857524 0.393519
vt 0.714667 0.393519
vt 0.714667 0.691211
vt 0.857524 0.691211
vt 0.142857 0.385291
vt 0.000000 0.385291
vt 0.000000 0.690133
vt 0.142857 0.690133
vt 0.142857 0.000000
vt 0.000000 0.000000
vt 0.571429 0.000000
vt 0.428572 0.000000
vt 0.333709 -0.000000
vt 0.190852 -0.000000
vt 0.857143 0.000000
vt 0.714285 0.000000
vn 0.0000 1.0000 0.0000
vn 1.0000 0.0000 0.0000
vn 0.0000 -1.0000 0.0000
vn -1.0000 0.0000 0.0000
vn 0.0000 0.0000 -1.0000
vn 1.0000 0.0000 -0.0003
vn -0.2624 0.0000 0.9650
vn 0.0001 -1.0000 -0.0006
vn -0.0001 1.0000 0.0006
vn -1.0000 0.0000 0.0003
usemtl wall_tiled
s off
f 101/241/2 90/242/2 92/243/2 102/244/2
f 102/245/3 92/246/3 96/247/3 103/248/3
f 103/249/4 96/250/4 94/251/4 104/252/4
f 104/253/5 94/254/5 90/255/5 101/256/5
f 91/257/6 95/258/6 93/259/6 89/260/6
f 96/261/7 92/262/7 98/263/7 99/264/7
f 99/265/8 98/266/8 97/267/8 100/268/8
f 94/269/9 96/270/9 99/271/9 100/272/9
f 92/273/10 90/274/10 97/275/10 98/276/10
f 90/277/11 94/278/11 100/279/11 97/280/11
f 93/281/5 104/253/5 101/256/5 89/282/5
f 95/283/4 103/249/4 104/252/4 93/284/4
f 91/285/3 102/245/3 103/248/3 95/286/3
f 89/287/2 101/241/2 102/244/2 91/288/2
o Cube.001
v 11.828109 1.245297 0.554180
v 11.828109 1.245297 3.054180
v 12.128109 1.245297 0.554180
v 12.128109 1.245297 3.054180
v 11.828109 0.945297 0.554180
v 11.828109 0.945297 3.054180
v 12.128109 0.945297 0.554180
v 12.128109 0.945297 3.054180
v 11.828586 1.244323 4.594009
v 12.128586 1.244323 4.675594
v 12.128586 0.944323 4.675594
v 11.828586 0.944323 4.594009
v 11.828109 1.245297 2.646803
v 12.128109 1.245297 2.646803
v 12.128109 0.945297 2.646803
v 11.828109 0.945297 2.646803
vt 0.857143 0.837049
vt 0.857143 0.690706
vt 0.714286 0.690706
vt 0.714286 0.837049
vt 0.333709 0.837049
vt 0.333709 0.690691
vt 0.190852 0.690691
vt 0.190852 0.837049
vt 0.571429 0.837049
vt 0.571429 0.690691
vt 0.428572 0.690691
vt 0.428572 0.837049
vt 0.142857 0.837049
vt 0.142857 0.691641
vt 0.000000 0.691641
vt 0.000000 0.837049
vt 0.850560 0.000244
vt 0.993417 0.000244
vt 0.993417 0.110886
vt 0.850560 0.110886
vt 0.331934 0.386368
vt 0.189077 0.386368
vt 0.189077 0.691211
vt 0.331934 0.691211
vt 0.996709 0.713908
vt 0.853852 0.713908
vt 0.853852 0.629484
vt 0.996709 0.629484
vt 0.427427 0.691345
vt 0.570284 0.691345
vt 0.570284 0.391270
vt 0.427427 0.391270
vt 0.857524 0.393519
vt 0.714667 0.393519
vt 0.714667 0.691211
vt 0.857524 0.691211
vt 0.142857 0.385291
vt 0.000000 0.385291
vt 0.000000 0.690133
vt 0.142857 0.690133
vt 0.142857 0.000000
vt 0.000000 0.000000
vt 0.571429 0.000000
vt 0.428572 0.000000
vt 0.333709 -0.000000
vt 0.190852 -0.000000
vt 0.857143 0.000000
vt 0.714285 0.000000
vn 0.0000 1.0000 0.0000
vn 1.0000 0.0000 0.0000
vn 0.0000 -1.0000 0.0000
vn -1.0000 0.0000 0.0000
vn 0.0000 0.0000 -1.0000
vn 1.0000 0.0000 -0.0003
vn -0.2624 0.0000 0.9650
vn 0.0001 -1.0000 -0.0006
vn -0.0001 1.0000 0.0006
vn -1.0000 0.0000 0.0003
usemtl wall_tiled
s off
f 117/289/12 106/290/12 108/291/12 118/292/12
f 118/293/13 108/294/13 112/295/13 119/296/13
f 119/297/14 112/298/14 110/299/14 120/300/14
f 120/301/15 110/302/15 106/303/15 117/304/15
f 107/305/16 111/306/16 109/307/16 105/308/16
f 112/309/17 108/310/17 114/311/17 115/312/17
f 115/313/18 114/314/18 113/315/18 116/316/18
f 110/317/19 112/318/19 115/319/19 116/320/19
f 108/321/20 106/322/20 113/323/20 114/324/20
f 106/325/21 110/326/21 116/327/21 113/328/21
f 109/329/15 120/301/15 117/304/15 105/330/15
f 111/331/14 119/297/14 120/300/14 109/332/14
f 107/333/13 118/293/13 119/296/13 111/334/13
f 105/335/12 117/289/12 118/292/12 107/336/12
o Cube.002_Cube.001
v 16.189856 -1.364069 -1.009371
v 16.189856 -1.364069 1.490629
v 16.489855 -1.364069 -1.009371
v 16.489855 -1.364069 1.490629
v 16.189856 -1.664069 -1.009371
v 16.189856 -1.664069 1.490629
v 16.489855 -1.664069 -1.009371
v 16.489855 -1.664069 1.490629
v 16.190331 -1.365043 3.030458
v 16.490332 -1.365043 3.112043
v 16.490332 -1.665043 3.112043
v 16.190331 -1.665043 3.030458
v 16.189856 -1.364069 1.083252
v 16.489855 -1.364069 1.083252
v 16.489855 -1.664069 1.083252
v 16.189856 -1.664069 1.083252
vt 0.857143 0.837049
vt 0.857143 0.690706
vt 0.714286 0.690706
vt 0.714286 0.837049
vt 0.333709 0.837049
vt 0.333709 0.690691
vt 0.190852 0.690691
vt 0.190852 0.837049
vt 0.571429 0.837049
vt 0.571429 0.690691
vt 0.428572 0.690691
vt 0.428572 0.837049
vt 0.142857 0.837049
vt 0.142857 0.691641
vt 0.000000 0.691641
vt 0.000000 0.837049
vt 0.850560 0.000244
vt 0.993417 0.000244
vt 0.993417 0.110886
vt 0.850560 0.110886
vt 0.331934 0.386368
vt 0.189077 0.386368
vt 0.189077 0.691211
vt 0.331934 0.691211
vt 0.996709 0.713908
vt 0.853852 0.713908
vt 0.853852 0.629484
vt 0.996709 0.629484
vt 0.427427 0.691345
vt 0.570284 0.691345
vt 0.570284 0.391270
vt 0.427427 0.391270
vt 0.857524 0.393519
vt 0.714667 0.393519
vt 0.714667 0.691211
vt 0.857524 0.691211
vt 0.142857 0.385291
vt 0.000000 0.385291
vt 0.000000 0.690133
vt 0.142857 0.690133
vt 0.142857 0.000000
vt 0.000000 0.000000
vt 0.571429 0.000000
vt 0.428572 0.000000
vt 0.333709 -0.000000
vt 0.190852 -0.000000
vt 0.857143 0.000000
vt 0.714285 0.000000
vn 0.0000 1.0000 0.0000
vn 1.0000 0.0000 0.0000
vn 0.0000 -1.0000 0.0000
vn -1.0000 0.0000 0.0000
vn 0.0000 0.0000 -1.0000
vn 1.0000 0.0000 -0.0003
vn -0.2624 0.0000 0.9650
vn 0.0001 -1.0000 -0.0006
vn -0.0001 1.0000 0.0006
vn -1.0000 0.0000 0.0003
usemtl wall_tiled
s off
f 133/337/22 122/338/22 124/339/22 134/340/22
f 134/341/23 124/342/23 128/343/23 135/344/23
f 135/345/24 128/346/24 126/347/24 136/348/24
f 136/349/25 126/350/25 122/351/25 133/352/25
f 123/353/26 127/354/26 125/355/26 121/356/26
f 128/357/27 124/358/27 130/359/27 131/360/27
f 131/361/28 130/362/28 129/363/28 132/364/28
f 126/365/29 128/366/29 131/367/29 132/368/29
f 124/369/30 122/370/30 129/371/30 130/372/30
f 122/373/31 126/374/31 132/375/31 129/376/31
f 125/377/25 136/349/25 133/352/25 121/378/25
f 127/379/24 135/345/24 136/348/24 125/380/24
f 123/381/23 134/341/23 135/344/23 127/382/23
f 121/383/22 133/337/22 134/340/22 123/384/22
o Wall_Cube
v 5.982360 -16.559999 2.500000
v 5.982360 -16.559999 0.000000
v 5.832360 -16.559999 2.500000
v 5.832360 -16.559999 0.000000
v 5.982360 16.559999 2.500000
v 5.982360 16.559999 0.000000
v 5.832360 16.559999 2.500000
v 5.832360 16.559999 0.000000
vt 16.548309 0.685572
vt 0.004915 0.719694
vt 0.004915 0.685572
vt 16.548889 0.999121
vt -0.001468 -0.000461
vt 16.549690 -0.000460
vt 0.992340 0.999183
vt 0.921389 0.000598
vt 0.992506 0.000598
vt -0.001405 0.066288
vt 16.546009 0.040426
vt 16.546009 0.066288
vt 0.141665 0.999206
vt 0.094922 0.000165
vt 0.141665 0.001819
vt 16.547169 0.999354
vt -0.002209 -0.000519
vt 16.547169 -0.000519
vt 16.548309 0.719694
vt -0.002271 0.999121
vt 0.921223 0.999183
vt -0.001406 0.040426
vt 0.094922 0.999206
vt -0.002209 0.999354
vn 0.0000 0.0000 1.0000
vn -1.0000 0.0000 0.0000
vn 0.0000 1.0000 0.0000
vn 0.0000 0.0000 -1.0000
vn 0.0000 -1.0000 0.0000
vn 1.0000 0.0000 0.0000
usemtl wall_tiled
s off
f 141/385/32 139/386/32 137/387/32
f 139/388/33 144/389/33 140/390/33
f 143/391/34 142/392/34 144/393/34
f 138/394/35 144/395/35 142/396/35
f 137/397/36 140/398/36 138/399/36
f 141/400/37 138/401/37 142/402/37
f 141/385/32 143/403/32 139/386/32
f 139/388/33 143/404/33 144/389/33
f 143/391/34 141/405/34 142/392/34
f 138/394/35 140/406/35 144/395/35
f 137/397/36 139/407/36 140/398/36
f 141/400/37 137/408/37 138/401/37
